# ProBuilder 4.5.0
# https://unity3d.com/unity/features/worldbuilding/probuilder
# 16.10.2023 12:58:50

mtllib ./Cube_(1).mtl
o Cube (1)

g Cube (1)
v -0.8989196 0.3368812 -2
v -0.1010804 0.3368812 -2
v -0.8989196 0.6631188 -2
v -0.1010804 0.6631188 -2
v -0.5 0.3368812 0.75
v -1.5002 0.3368812 -0.5
v -1.5002 0.6631188 -0.5
v -0.5 0.6631188 0.75
v -0.8989196 0.3368812 -0.5
v -0.8989196 0.6631188 -0.5
v -0.1010804 0.3368812 -0.5
v -0.1010804 0.6631188 -0.5
v 0.5002 0.3368812 -0.5
v 0.5002 0.6631188 -0.5

vt 0.8989196 0.3368812
vt 0.1010804 0.3368812
vt 0.8989196 0.6631188
vt 0.1010804 0.6631188
vt 0.2732203 0.3368812
vt -1.327686 0.3368812
vt -1.327686 0.6631188
vt 0.2732203 0.6631188
vt -0.5 0.3368812
vt -2 0.3368812
vt -2 0.6631188
vt -0.5 0.6631188
vt 2 0.3368812
vt 0.5 0.3368812
vt 0.5 0.6631188
vt 2 0.6631188
vt 0.7029145 0.3368812
vt -0.8979915 0.3368812
vt -0.8979915 0.6631188
vt 0.7029145 0.6631188
vt 0.5 0.75
vt 0.8989196 -0.5
vt 0.1010804 -0.5
vt 0.8989196 -2
vt 0.1010804 -2
vt -0.1010804 -2
vt -0.8989196 -2
vt -0.8989196 -0.5
vt -0.1010804 -0.5
vt -0.5 0.75
vt -0.5002 -0.5
vt 0.5002 -0.5
vt -1.5002 -0.5
vt 1.5002 0.3368812
vt 1.5002 0.6631188
vt 1.5002 -0.5

vn 0 0 -1
vn -0.7808079 0 0.6247712
vn -1 0 0
vn 1 0 0
vn 0.7808079 0 0.6247712
vn 0 1 0
vn 0 -1 0

usemtl ProBuilderDefault
f 8/21/6 12/23/6 10/22/6
f 8/21/6 14/31/6 12/23/6
f 7/36/6 8/21/6 10/22/6
f 9/28/7 11/29/7 5/30/7
f 5/30/7 6/33/7 9/28/7
f 13/32/7 5/30/7 11/29/7
f 4/4/1 2/2/1 1/1/1
f 1/1/1 3/3/1 4/4/1
f 7/7/2 6/6/2 5/5/2
f 5/5/2 8/8/2 7/7/2
f 3/11/3 1/10/3 9/9/3
f 9/9/3 10/12/3 3/11/3
f 4/16/4 12/15/4 11/14/4
f 11/14/4 2/13/4 4/16/4
f 14/20/5 8/19/5 5/18/5
f 5/18/5 13/17/5 14/20/5
f 12/23/6 4/25/6 3/24/6
f 3/24/6 10/22/6 12/23/6
f 11/29/7 9/28/7 1/27/7
f 1/27/7 2/26/7 11/29/7
f 13/9/1 11/2/1 12/4/1
f 12/4/1 14/12/1 13/9/1
f 7/35/1 10/3/1 9/1/1
f 9/1/1 6/34/1 7/35/1

